<svg id="logo-uala" width="74px" height="20px" viewBox="0 0 74 20" version="1.1" xmlns="http://www.w3.org/2000/svg" xmlns:xlink="http://www.w3.org/1999/xlink">
    <g stroke="none" stroke-width="1" fill="none" fill-rule="evenodd">
        <g transform="translate(-55.000000, -38.000000)" id="header" fill="#27282D">
            <g>
                <path d="M116.349,52.426 L110.048,52.426 L110.312,51.894 L113.185,46.052 L116.085,51.894 L116.349,52.426 Z M106.032,52.426 L105.978,52.426 L105.978,52.534 L103.386,57.762 L107.386,57.762 L108.418,55.697 L117.974,55.697 L118.984,57.762 L122.984,57.762 L113.185,38 L106.032,52.426 Z M126.344,52.435 C124.877,52.435 123.688,53.601 123.688,55.039 C123.688,56.476 124.877,57.642 126.344,57.642 C127.811,57.642 129,56.476 129,55.039 C129,53.601 127.811,52.435 126.344,52.435 L126.344,52.435 Z M95.089,38.026 L90.82,38.026 L90.82,57.762 L102.472,57.762 L102.472,54.025 L95.089,54.025 L95.089,38.026 Z M71.163,38.026 L66.921,38.026 L66.921,50.026 C66.921,52.105 65.498,54.236 63.081,54.236 C60.638,54.236 59.242,52.105 59.242,50.026 L59.215,50.026 L59.215,38.026 L55,38.026 L55,50.026 C55,54.42 57.578,57.999 63.081,57.999 C68.585,57.999 71.163,54.42 71.163,50.026 L71.163,38.026 Z M76.902,52.426 L77.167,51.894 L80.039,46.052 L82.939,51.894 L83.204,52.426 L76.902,52.426 Z M87.205,52.426 L87.193,52.426 L80.039,38 L70.24,57.762 L74.24,57.762 L75.272,55.697 L84.828,55.697 L85.838,57.762 L89.839,57.762 L87.205,52.45 L87.205,52.426 Z" id="logo"/>
            </g>
        </g>
    </g>
</svg>